<?xml version="1.0" standalone="no"?>
<!DOCTYPE svg PUBLIC "-//W3C//DTD SVG 20010904//EN"
 "http://www.w3.org/TR/2001/REC-SVG-20010904/DTD/svg10.dtd">
<svg version="1.0" xmlns="http://www.w3.org/2000/svg"
 width="210.000000pt" height="210.000000pt" viewBox="0 0 210.000000 210.000000"
 preserveAspectRatio="xMidYMid meet">
<metadata>
Created by potrace 1.14, written by Peter Selinger 2001-2017
</metadata>
<g transform="translate(0.000000,210.000000) scale(0.100000,-0.100000)"
fill="#000000" stroke="none">
<path d="M878 2035 c-340 -64 -624 -297 -752 -620 -29 -73 -32 -81 -47 -155
-19 -90 -21 -106 -24 -185 -7 -222 61 -437 196 -622 51 -70 141 -159 218 -216
61 -45 216 -127 241 -127 9 0 20 -4 25 -9 13 -11 126 -38 195 -47 433 -56 855
180 1040 581 17 39 33 77 35 85 2 8 13 51 25 95 39 144 33 367 -14 525 -25 83
-81 199 -137 281 -95 140 -282 292 -429 348 -25 10 -54 21 -65 26 -11 4 -29
10 -40 12 -11 2 -31 8 -45 13 -67 26 -313 35 -422 15z"/>
</g>
</svg>
